<?xml version="1.0" standalone="no"?>
<!DOCTYPE svg PUBLIC "-//W3C//DTD SVG 20010904//EN"
 "http://www.w3.org/TR/2001/REC-SVG-20010904/DTD/svg10.dtd">
<svg version="1.0" xmlns="http://www.w3.org/2000/svg"
 width="256.000000pt" height="256.000000pt" viewBox="0 0 256.000000 256.000000"
 preserveAspectRatio="xMidYMid meet">
<metadata>
Created by potrace 1.14, written by Peter Selinger 2001-2017
</metadata>
<g transform="translate(0.000000,256.000000) scale(0.100000,-0.100000)"
fill="#000000" stroke="none">
<path d="M965 2550 c3 -6 12 -7 18 -3 7 3 4 -3 -6 -14 -9 -11 -14 -23 -10 -26
3 -4 2 -7 -4 -7 -5 0 -10 -7 -10 -15 0 -8 3 -15 7 -15 4 0 7 -7 7 -15 0 -10
-6 -14 -15 -10 -13 5 -13 3 -1 -11 15 -18 22 -47 9 -39 -10 6 -8 -15 3 -32 5
-8 4 -13 -2 -13 -6 0 -3 -8 7 -18 11 -12 20 -14 25 -8 5 8 10 7 16 -3 6 -9 10
-10 16 -2 5 9 10 9 21 0 8 -6 14 -7 14 -2 0 5 7 10 15 10 8 0 15 -5 15 -11 0
-6 5 -4 10 4 7 11 10 11 10 2 0 -7 4 -10 10 -7 13 8 55 -15 44 -24 -12 -8 -11
-34 1 -44 6 -5 -1 -5 -14 -2 -13 4 -21 3 -18 -2 3 -5 -3 -9 -13 -9 -10 0 -17
3 -14 7 2 4 -4 6 -13 4 -10 -2 -18 -4 -18 -5 0 -1 -8 -3 -18 -5 -9 -2 -15 1
-11 6 3 5 0 9 -5 9 -6 0 -11 -6 -11 -12 0 -9 -4 -8 -10 2 -8 12 -10 12 -10 1
0 -11 -3 -11 -17 0 -9 8 -17 14 -18 14 -1 0 -9 -6 -18 -14 -13 -10 -17 -10
-17 -1 0 10 -3 10 -15 0 -12 -10 -15 -10 -15 1 0 11 -2 11 -10 -1 -8 -12 -10
-12 -10 -1 0 11 -3 11 -17 0 -9 -8 -19 -12 -22 -10 -24 14 -51 19 -51 9 0 -7
-7 -3 -15 8 -15 18 -15 18 -8 0 4 -13 3 -17 -5 -12 -21 13 -51 15 -58 4 -5 -7
-2 -8 6 -3 8 5 11 4 6 -3 -6 -11 -37 -9 -57 4 -8 4 -7 0 0 -15 7 -12 8 -20 4
-19 -4 1 -19 -4 -33 -11 l-25 -14 20 24 20 24 -23 -19 c-12 -11 -20 -26 -17
-34 3 -9 0 -12 -9 -9 -11 4 -13 1 -9 -11 6 -15 5 -16 -12 -2 -17 14 -18 14 -6
-7 6 -13 8 -23 4 -23 -4 0 -2 -4 5 -9 11 -7 11 -9 -2 -14 -9 -4 -15 -3 -15 1
3 18 -2 32 -12 32 -6 0 -7 -6 -2 -12 10 -17 10 -49 0 -70 -5 -12 -3 -18 5 -18
9 0 9 -3 -2 -10 -13 -9 -13 -10 0 -10 13 0 13 -1 0 -10 -13 -9 -13 -10 0 -10
9 0 11 -3 5 -8 -15 -11 -17 -32 -3 -32 9 0 8 -4 -2 -10 -12 -8 -12 -10 -1 -10
10 0 11 -4 3 -13 -7 -8 -6 -17 3 -30 10 -14 14 -15 18 -5 4 8 6 7 6 -4 1 -10
6 -18 12 -18 8 0 7 -6 -2 -17 -8 -9 -9 -14 -3 -10 6 3 11 0 11 -8 0 -8 -4 -12
-9 -9 -4 3 -8 0 -8 -6 0 -7 -7 -10 -14 -7 -10 4 -13 1 -9 -9 3 -7 0 -14 -6
-14 -9 0 -9 -5 -1 -20 8 -15 8 -20 -2 -20 -9 0 -9 -3 2 -10 11 -7 12 -10 2
-10 -10 0 -10 -4 2 -16 9 -8 16 -21 16 -27 0 -7 4 -6 10 3 9 13 11 13 19 1 8
-12 12 -12 25 -2 13 11 16 11 16 0 0 -11 2 -11 10 1 5 8 10 10 10 4 0 -14 30
-14 30 0 0 6 4 5 9 -3 8 -12 12 -12 25 -2 13 11 16 11 16 0 0 -11 2 -11 10 1
9 13 10 13 10 0 0 -12 2 -13 9 -1 7 11 9 11 14 0 5 -12 7 -12 15 0 8 11 10 11
15 0 4 -10 6 -10 6 -1 1 6 12 12 25 12 14 0 28 5 32 12 4 6 3 8 -3 5 -6 -4
-13 0 -16 8 -4 9 -1 12 7 9 7 -3 13 2 13 11 0 8 -5 15 -11 15 -6 0 -4 5 4 10
13 9 13 10 0 10 -13 0 -13 1 0 10 8 5 10 10 4 10 -6 0 -11 7 -11 15 0 8 3 15
7 15 4 0 7 7 7 15 0 8 -5 15 -11 15 -6 0 -4 5 4 10 12 8 12 10 1 10 -10 0 -11
3 -2 14 9 11 9 15 0 18 -7 2 -5 9 7 18 11 9 15 10 10 3 -4 -7 -2 -13 3 -13 6
0 11 4 11 10 0 6 9 6 25 0 18 -7 25 -6 25 3 0 8 3 8 9 -2 7 -11 9 -11 14 0 4
11 6 11 6 1 1 -10 6 -10 22 -1 17 9 20 8 14 -2 -6 -8 -4 -11 7 -7 11 5 14 -1
12 -26 -1 -17 -3 -31 -4 -31 -1 0 -3 -8 -5 -18 -2 -10 4 -21 13 -25 34 -12 49
-38 19 -33 -4 0 -6 -2 -6 -6 3 -20 -2 -26 -11 -13 -6 10 -10 11 -10 3 0 -7 -5
-13 -11 -13 -5 0 -7 6 -3 13 5 7 1 7 -12 -3 -29 -22 -30 -24 -11 -17 9 4 17 4
17 0 0 -3 -8 -12 -17 -20 -11 -8 -12 -11 -3 -7 13 7 13 5 1 -9 -11 -14 -11
-17 0 -17 11 0 11 -2 -1 -10 -13 -9 -13 -10 0 -10 13 0 13 -1 0 -10 -13 -9
-13 -10 0 -10 13 0 13 -1 0 -10 -13 -9 -13 -10 0 -10 13 0 13 -1 0 -10 -11 -7
-11 -10 -2 -10 8 0 10 -5 5 -12 -13 -22 -11 -59 3 -54 7 3 16 1 19 -5 4 -5 11
-7 16 -4 5 4 9 -1 9 -9 0 -10 9 -16 23 -16 18 0 19 -2 7 -10 -11 -7 -11 -10
-2 -10 8 0 10 -5 5 -12 -11 -18 -10 -42 2 -50 6 -5 4 -8 -5 -8 -13 0 -13 -1 0
-10 13 -9 13 -10 0 -10 -13 0 -13 -1 0 -10 13 -9 13 -10 0 -10 -13 0 -13 -1 0
-10 13 -9 13 -11 0 -20 -13 -9 -13 -10 0 -10 13 0 13 -1 0 -10 -13 -9 -13 -11
0 -20 13 -9 13 -10 0 -10 -13 0 -13 -1 0 -10 13 -9 13 -10 0 -10 -13 0 -13 -1
0 -10 13 -9 13 -10 0 -10 -13 0 -13 -1 0 -10 13 -9 13 -11 0 -20 -13 -9 -13
-10 0 -10 13 0 13 -1 0 -10 -13 -9 -13 -11 0 -20 13 -9 13 -10 0 -10 -13 0
-13 -1 0 -10 13 -9 13 -10 0 -10 -13 0 -13 -1 0 -10 13 -9 13 -10 0 -10 -13 0
-13 -1 0 -10 13 -9 13 -10 0 -10 -12 0 -13 -2 -1 -9 11 -7 11 -9 0 -14 -11 -4
-11 -6 -1 -6 8 -1 10 -6 6 -13 -12 -19 -12 -48 -1 -48 5 0 3 -8 -4 -17 -12
-15 -12 -16 1 -8 12 7 13 6 3 -6 -7 -9 -9 -20 -3 -29 6 -9 5 -17 -3 -22 -9 -6
-8 -8 3 -8 13 0 13 -1 0 -10 -13 -9 -13 -11 0 -20 13 -9 13 -10 0 -10 -13 0
-13 -1 0 -10 13 -9 13 -10 0 -10 -13 0 -13 -1 0 -10 13 -9 13 -10 0 -10 -13 0
-13 -1 0 -10 13 -9 13 -11 0 -20 -13 -9 -13 -10 0 -10 13 0 13 -1 0 -10 -13
-9 -13 -10 0 -10 13 0 13 -1 0 -10 -13 -9 -13 -10 0 -10 9 0 11 -3 5 -8 -5 -4
-10 -14 -10 -22 0 -8 5 -19 10 -23 6 -5 -1 -5 -14 -2 -16 5 -21 4 -17 -4 5 -8
0 -8 -17 -2 -16 6 -28 6 -36 -2 -8 -8 -11 -7 -11 4 0 12 -2 12 -10 -1 -5 -8
-10 -10 -10 -4 0 6 -7 11 -15 11 -8 0 -15 -5 -15 -11 0 -5 -7 -1 -15 10 -13
16 -14 17 -9 1 7 -19 -15 -21 -28 -2 -5 6 -12 4 -18 -5 -9 -13 -10 -13 -10 0
0 13 -1 13 -10 0 -9 -13 -10 -13 -10 0 0 13 -1 13 -10 0 -9 -13 -10 -13 -10 0
0 9 -3 11 -8 5 -10 -14 -32 -17 -32 -4 0 8 -5 8 -15 -1 -12 -10 -15 -10 -15 1
0 11 -2 11 -10 -1 -5 -8 -10 -10 -10 -4 0 6 -7 11 -15 11 -8 0 -15 -3 -15 -7
0 -4 -7 -7 -15 -7 -8 0 -15 5 -15 11 0 6 -5 4 -10 -4 -8 -12 -10 -12 -10 -1 0
11 -3 11 -15 1 -12 -10 -15 -10 -15 0 0 10 -3 10 -15 0 -12 -10 -15 -10 -15 1
0 11 -2 11 -10 -1 -5 -8 -10 -10 -10 -4 0 6 -7 11 -15 11 -8 0 -15 -3 -15 -7
0 -4 -7 -7 -15 -7 -8 0 -15 5 -15 11 0 6 -5 4 -10 -4 -7 -11 -10 -11 -10 -2 0
8 -5 10 -12 5 -18 -11 -39 -13 -33 -3 3 5 -2 7 -11 6 -9 -1 -21 -10 -26 -19
-5 -10 -13 -15 -19 -12 -5 3 -6 0 -4 -7 11 -28 -36 -17 -65 15 -23 26 -31 30
-41 20 -15 -15 -33 -17 -24 -3 3 6 4 10 1 10 -3 0 -10 -10 -17 -21 -9 -17 -8
-20 3 -14 7 3 4 -1 -6 -9 -13 -10 -23 -12 -31 -6 -7 6 -16 5 -23 -2 -9 -9 -12
-9 -12 0 0 6 -8 21 -17 32 -13 14 -20 17 -30 8 -10 -8 -13 -7 -13 3 0 11 -2
11 -10 -1 -6 -9 -10 -10 -10 -3 0 14 -38 9 -54 -7 -15 -15 7 -13 24 3 12 10
12 9 1 -5 -7 -10 -24 -18 -36 -18 -23 0 -23 -3 -23 -97 0 -79 3 -99 16 -110
16 -12 16 -13 0 -7 -16 6 -17 -10 -15 -233 l2 -238 1277 -2 1276 -2 1 262 c0
163 -4 256 -9 247 -6 -9 -10 -10 -10 -3 0 6 5 15 10 18 7 4 10 43 8 96 -2 79
-3 87 -15 67 -7 -13 -12 -17 -13 -10 0 7 -5 10 -12 6 -7 -4 -8 -3 -4 5 4 6 12
9 17 6 16 -11 10 0 -13 19 -20 18 -21 18 -15 0 6 -17 6 -17 -8 1 -14 17 -17
18 -25 5 -9 -13 -10 -13 -10 0 0 13 -1 13 -10 0 -9 -13 -10 -13 -10 0 0 13 -1
13 -10 0 -9 -13 -10 -13 -10 0 0 9 -3 11 -8 5 -10 -14 -32 -17 -32 -4 0 8 -5
8 -15 -1 -12 -10 -15 -10 -15 1 0 11 -2 11 -10 -1 -5 -8 -10 -10 -10 -4 0 6
-7 11 -15 11 -8 0 -15 -4 -15 -9 0 -11 -23 -6 -32 7 -5 6 -8 4 -8 -5 0 -13 -1
-13 -10 0 -9 13 -11 13 -20 0 -9 -13 -10 -13 -10 0 0 13 -1 13 -10 0 -9 -13
-10 -13 -10 0 0 13 -1 13 -10 0 -9 -13 -10 -13 -10 0 0 9 -3 11 -8 5 -10 -14
-32 -17 -32 -4 0 8 -5 8 -15 -1 -12 -10 -15 -10 -15 1 0 11 -2 11 -10 -1 -5
-8 -10 -10 -10 -4 0 6 -7 11 -15 11 -8 0 -15 -5 -15 -11 0 -5 -7 -1 -15 10
-13 16 -14 17 -9 1 7 -19 -15 -21 -28 -2 -5 6 -12 4 -18 -5 -9 -13 -10 -13
-10 0 0 13 -1 13 -10 0 -9 -13 -10 -13 -10 0 0 13 -1 13 -10 0 -9 -13 -10 -13
-10 0 0 13 -1 13 -10 0 -9 -13 -11 -13 -20 0 -9 13 -10 13 -10 0 0 -9 -3 -11
-8 -5 -11 15 -32 17 -32 3 0 -9 -4 -8 -10 2 -9 13 -10 13 -10 0 0 -13 -1 -13
-10 0 -8 13 -10 13 -10 1 0 -11 -4 -9 -15 5 -10 13 -13 14 -10 3 4 -10 0 -16
-10 -16 -8 0 -15 5 -15 11 0 6 -5 4 -10 -4 -9 -13 -10 -13 -10 0 0 13 -1 13
-10 0 -5 -8 -10 -10 -10 -4 0 6 -7 11 -15 11 -8 0 -15 -5 -15 -11 0 -6 -5 -4
-10 4 -9 13 -10 13 -10 0 0 -13 -1 -13 -10 0 -8 13 -10 13 -10 1 0 -11 -4 -9
-15 5 -10 13 -13 14 -10 3 4 -10 0 -16 -10 -16 -8 0 -15 5 -15 11 0 6 -5 4
-10 -4 -9 -13 -10 -13 -10 0 0 13 -1 13 -10 0 -8 -12 -10 -12 -10 -1 0 11 -3
11 -17 0 -15 -12 -16 -12 -8 1 8 13 7 13 -8 1 -14 -11 -17 -11 -17 0 0 11 -2
11 -10 -1 -7 -12 -10 -11 -16 5 -4 11 -15 26 -23 33 -9 7 -11 12 -6 11 27 -4
26 3 -5 26 -19 14 -27 25 -19 25 12 0 12 2 0 9 -11 7 -11 9 0 14 10 4 10 6 2
6 -9 1 -8 7 4 21 11 12 21 16 28 10 7 -6 11 -2 11 11 0 13 -5 18 -15 14 -11
-4 -10 0 4 15 10 11 13 20 7 20 -14 0 -12 22 3 32 6 5 4 8 -5 8 -13 0 -13 1 0
10 13 9 13 11 0 20 -13 9 -13 10 0 10 13 0 13 1 0 10 -13 9 -13 10 0 10 13 0
13 1 0 10 -13 9 -13 10 0 10 13 0 13 1 0 10 -13 9 -13 11 0 20 13 9 13 10 0
10 -13 0 -13 1 0 10 13 9 13 10 0 10 -13 0 -13 1 0 10 13 9 13 10 0 10 -13 0
-13 1 0 10 13 9 13 11 0 20 -13 9 -13 10 0 10 13 0 13 1 0 10 -13 9 -13 10 0
10 13 0 13 1 0 10 -13 9 -13 10 0 10 13 0 13 1 0 10 -13 9 -13 11 0 20 13 9
13 10 0 10 -13 0 -13 1 0 10 13 9 13 10 0 10 -13 0 -13 1 0 10 13 9 13 10 0
10 -13 0 -13 1 0 10 13 9 13 11 0 20 -13 9 -13 10 0 10 13 0 13 1 0 10 -13 9
-13 10 0 10 13 0 13 1 0 10 -13 9 -13 10 0 10 13 0 13 1 0 10 -13 9 -13 11 0
20 13 9 13 10 0 10 -13 0 -13 1 0 10 13 9 13 10 0 10 -12 0 -13 2 -1 9 11 7
11 9 0 14 -11 4 -11 6 -1 6 10 1 10 6 1 22 -6 12 -7 19 -1 15 5 -3 12 1 16 9
6 17 32 20 38 6 2 -5 12 -3 23 6 19 15 19 15 -5 8 l-25 -6 25 21 c14 12 18 18
10 14 -13 -7 -13 -5 -2 8 10 13 10 17 0 21 -10 4 -10 8 2 16 13 10 13 11 0 11
-13 0 -13 1 0 10 13 9 13 11 0 20 -13 9 -13 10 0 10 13 0 13 1 0 10 -13 9 -13
10 0 11 10 0 8 3 -5 9 l-20 9 20 0 c11 1 16 5 10 9 -5 4 -12 16 -13 27 -2 11
-8 25 -14 30 -8 7 -9 6 -4 -2 4 -7 3 -13 -1 -13 -5 0 -15 6 -22 13 -11 10 -13
10 -7 0 4 -7 2 -13 -3 -13 -6 0 -11 9 -11 19 0 11 -6 22 -12 24 -8 4 -6 6 5 7
9 2 21 3 26 4 5 0 13 5 18 10 5 5 3 6 -4 2 -7 -4 -13 -3 -13 3 0 5 6 12 13 14
8 4 8 8 2 14 -19 15 -17 36 2 29 16 -5 15 -4 -1 9 -11 8 -15 15 -10 15 6 0 11
7 11 15 0 8 -5 15 -11 15 -6 0 -4 5 4 10 12 8 12 10 1 10 -11 0 -11 3 -1 15 9
11 9 15 1 15 -8 0 -9 6 -3 18 7 14 9 57 3 65 -9 10 -9 47 -1 42 6 -4 7 1 3 11
-4 11 -8 13 -11 6 -2 -7 -8 -12 -13 -12 -6 0 -7 5 -4 10 3 6 2 10 -3 10 -5 0
-8 11 -7 25 2 14 -1 23 -6 19 -5 -3 -9 -1 -9 5 0 5 -9 8 -20 6 -13 -2 -24 4
-31 18 -7 12 -17 25 -23 29 -8 6 -8 8 1 8 6 0 10 8 8 18 -2 9 -4 17 -5 17 -1
0 -3 8 -5 18 -2 9 1 15 6 11 5 -3 9 3 9 13 0 10 4 14 8 8 11 -15 32 -17 32 -3
0 9 4 8 10 -2 9 -13 10 -13 10 0 0 13 1 13 10 0 9 -13 10 -13 10 0 0 13 1 13
10 0 6 -10 10 -11 10 -2 0 14 21 12 32 -3 5 -6 8 -4 8 5 0 13 1 13 10 0 6 -10
10 -11 10 -3 0 9 6 7 20 -4 14 -13 16 -19 7 -25 -9 -6 -8 -8 3 -8 13 0 13 -1
0 -10 -13 -9 -13 -10 0 -10 13 0 13 -1 0 -10 -9 -6 -11 -13 -5 -17 19 -14 17
-36 -2 -29 -16 5 -15 4 1 -9 11 -8 15 -15 10 -15 -6 0 -11 -7 -11 -15 0 -8 5
-15 11 -15 6 0 4 -5 -4 -10 -12 -8 -12 -10 -1 -10 11 0 11 -3 1 -15 -10 -12
-10 -15 1 -15 11 0 11 -2 -1 -10 -13 -9 -13 -10 0 -10 13 0 13 -1 0 -10 -13
-9 -13 -10 0 -10 13 0 13 -1 0 -10 -13 -9 -13 -11 0 -20 13 -9 13 -10 0 -10
-12 0 -12 -2 -1 -9 9 -6 10 -11 2 -15 -17 -11 -13 -26 6 -26 15 0 14 -2 -3
-16 -17 -14 -17 -15 -1 -10 15 5 17 2 12 -17 -6 -18 -5 -20 6 -9 15 14 33 17
25 4 -3 -5 1 -9 9 -9 8 0 11 5 8 11 -4 6 1 5 10 -3 14 -11 17 -11 17 0 0 11 2
11 10 -1 9 -13 10 -13 10 0 0 13 1 13 10 0 9 -13 10 -13 10 0 0 13 1 13 10 0
9 -13 10 -13 10 0 0 13 1 13 10 0 9 -13 10 -13 10 0 0 13 1 13 10 0 6 -10 10
-11 10 -2 0 7 13 12 31 12 28 0 29 1 15 16 -20 19 -20 25 -3 18 8 -3 14 2 14
11 0 8 -4 15 -9 15 -5 0 -6 6 -1 13 14 22 10 56 -8 73 -10 9 -22 13 -27 10
-12 -7 -9 20 3 31 4 4 5 2 0 -6 -6 -10 -4 -12 5 -6 10 6 9 11 -5 22 -11 7 -13
13 -6 13 7 0 9 5 6 10 -3 6 3 10 15 10 12 0 18 5 15 10 -3 6 0 10 7 10 9 0 9
3 -2 10 -13 9 -13 10 0 10 13 0 13 1 0 10 -13 9 -13 10 0 10 13 0 13 1 0 10
-13 9 -13 11 0 20 13 9 13 10 0 10 -13 0 -13 1 0 10 13 9 13 10 0 10 -13 0
-13 1 0 10 11 7 12 10 2 10 -10 0 -10 4 2 16 20 19 21 31 2 15 -11 -10 -14 -9
-12 1 1 7 5 19 9 26 5 7 3 12 -5 12 -9 0 -9 3 2 10 11 7 12 10 2 10 -8 0 -12
6 -9 13 2 6 10 11 16 9 7 -1 10 2 6 8 -3 6 -11 8 -16 5 -13 -9 -11 9 4 24 7 9
7 11 1 8 -13 -8 -27 20 -18 34 3 5 2 9 -3 8 -22 -4 -33 3 -33 19 0 14 -2 15
-10 2 -8 -13 -10 -12 -10 3 0 10 -4 15 -10 12 -5 -3 -10 1 -10 9 0 13 -49 15
-396 16 -271 0 -393 -3 -389 -10z m510 -398 c-3 -3 -11 0 -18 7 -9 10 -8 11 6
5 10 -3 15 -9 12 -12z m-1148 -2128 c0 -10 -10 -11 -35 -5 -2 1 -1 5 2 9 8 13
33 10 33 -4z m480 0 c0 -10 -10 -11 -35 -5 -2 1 -1 5 2 9 8 13 33 10 33 -4z
m480 0 c0 -10 -10 -11 -35 -5 -2 1 -1 5 2 9 8 13 33 10 33 -4z m480 0 c0 -10
-10 -11 -35 -5 -2 1 -1 5 2 9 8 13 33 10 33 -4z m480 0 c0 -10 -10 -11 -35 -5
-2 1 -1 5 2 9 8 13 33 10 33 -4z m-1877 -4 c0 -5 -7 -7 -15 -4 -8 4 -15 8 -15
10 0 2 7 4 15 4 8 0 15 -4 15 -10z m480 0 c0 -5 -7 -7 -15 -4 -8 4 -15 8 -15
10 0 2 7 4 15 4 8 0 15 -4 15 -10z m480 0 c0 -5 -7 -7 -15 -4 -8 4 -15 8 -15
10 0 2 7 4 15 4 8 0 15 -4 15 -10z m480 0 c0 -5 -7 -7 -15 -4 -8 4 -15 8 -15
10 0 2 7 4 15 4 8 0 15 -4 15 -10z m480 0 c0 -5 -7 -7 -15 -4 -8 4 -15 8 -15
10 0 2 7 4 15 4 8 0 15 -4 15 -10z"/>
<path d="M700 1596 c0 -16 -2 -17 -17 -5 -15 13 -15 12 -5 -7 13 -25 7 -35
-16 -27 -12 5 -14 2 -9 -11 4 -9 3 -15 -3 -11 -13 8 -51 -37 -45 -53 3 -9 0
-12 -7 -9 -9 3 -13 -6 -14 -24 -1 -17 3 -26 9 -22 6 3 7 1 3 -6 -6 -9 -11 -9
-21 -1 -11 9 -12 7 -8 -9 3 -12 1 -21 -6 -21 -6 0 -11 -5 -11 -11 0 -5 4 -7
10 -4 6 3 7 -1 4 -9 -3 -9 -11 -16 -16 -16 -6 0 -4 -8 3 -17 7 -10 9 -15 5
-11 -5 4 -15 0 -23 -10 -8 -9 -11 -11 -7 -3 5 10 3 12 -5 7 -9 -6 -9 -11 0
-22 6 -8 8 -14 3 -14 -5 0 -2 -5 6 -10 12 -8 12 -10 -5 -10 -15 0 -17 -2 -6
-9 11 -7 11 -9 0 -14 -11 -4 -11 -6 1 -6 13 -1 13 -2 0 -11 -12 -8 -12 -10 -1
-10 11 0 11 -3 0 -17 -10 -11 -10 -14 -1 -9 7 4 12 2 12 -4 0 -6 4 -8 10 -5 6
3 7 -1 4 -10 -4 -8 -1 -21 5 -29 6 -7 8 -16 4 -19 -3 -4 3 -7 14 -7 27 0 35
-10 20 -28 -8 -11 -8 -14 0 -9 6 4 14 1 16 -5 3 -7 6 -5 6 6 1 18 2 18 21 1
11 -10 20 -15 20 -10 0 4 7 2 15 -5 8 -7 15 -9 15 -4 0 5 7 0 15 -10 8 -11 15
-15 15 -9 0 6 8 10 18 9 9 -2 20 2 24 8 5 7 8 4 8 -7 0 -10 5 -15 10 -12 6 4
8 10 6 14 -3 4 -1 13 3 20 6 10 10 9 14 -4 5 -11 3 -14 -6 -9 -6 4 -8 3 -4 -1
15 -17 35 -13 30 5 -4 15 0 18 19 13 18 -4 20 -3 8 6 -13 9 -12 11 5 12 11 1
23 1 26 1 3 -1 5 10 4 23 -2 18 1 23 15 20 13 -3 17 1 13 11 -3 7 -10 11 -17
7 -6 -4 -5 1 3 10 14 18 26 23 16 8 -3 -5 -1 -12 4 -15 5 -4 8 2 6 11 -1 10 0
23 4 28 9 16 8 49 -4 58 -6 4 -5 10 5 17 13 8 13 11 1 22 -11 11 -13 11 -6 -1
5 -10 4 -12 -4 -7 -6 4 -9 12 -6 17 4 5 2 9 -2 9 -5 0 -9 9 -10 20 -1 11 2 18
8 15 19 -12 8 7 -18 33 -16 15 -24 24 -19 20 17 -13 29 -9 17 6 -9 11 -9 15 1
20 9 4 9 5 -2 5 -31 -2 -39 1 -34 16 4 8 -1 17 -10 21 -9 3 -16 11 -16 16 0 6
6 5 15 -2 17 -14 20 -5 5 13 -6 7 -18 21 -26 32 -14 19 -14 19 -3 -5 9 -20 9
-23 -1 -13 -7 7 -14 20 -15 30 0 10 -5 19 -9 20 -5 1 -17 14 -27 30 -10 15
-19 22 -19 16 0 -15 -21 -13 -32 2 -4 6 -8 2 -8 -9z m54 -14 c3 -5 -1 -9 -9
-9 -8 0 -12 4 -9 9 3 4 7 8 9 8 2 0 6 -4 9 -8z m-120 -77 c-4 -8 -11 -15 -16
-15 -6 0 -5 6 2 15 7 8 14 15 16 15 2 0 1 -7 -2 -15z m256 -144 c0 -6 -4 -12
-8 -15 -5 -3 -9 1 -9 9 0 8 4 15 9 15 4 0 8 -4 8 -9z"/>
<path d="M650 1576 c0 -2 7 -7 16 -10 8 -3 12 -2 9 4 -6 10 -25 14 -25 6z"/>
<path d="M1010 1524 c0 -8 5 -12 10 -9 6 4 8 11 5 16 -9 14 -15 11 -15 -7z"/>
<path d="M515 1340 c-3 -5 -1 -10 4 -10 6 0 11 5 11 10 0 6 -2 10 -4 10 -3 0
-8 -4 -11 -10z"/>
<path d="M620 1060 c0 -5 5 -10 11 -10 5 0 7 5 4 10 -3 6 -8 10 -11 10 -2 0
-4 -4 -4 -10z"/>
<path d="M647 1047 c-6 -15 28 -17 40 -1 5 5 4 6 -1 2 -5 -4 -15 -3 -21 2 -9
7 -14 6 -18 -3z"/>
</g>
</svg>
